# xmcd
#
# Track frame offsets:
#	182
#	10662
#	22695
#	33470
#	46690
#	58300
#	69342
#	80550
#	88372
#	100732
#	112620
#	123775
#	136935
#	147115
#
# Disc length: 2150 seconds
#
# Revision: 5
# Processed by: cddbd v1.5.2PL0 Copyright (c) Steve Scherf et al.
# Submitted via: audiograbber 1.83.01
#
DISCID=a608640e
DTITLE=Various Artist - Kind of Country
DYEAR=1987
DGENRE=Country
TTITLE0=George Jones - Walk Through This World With Me
TTITLE1=Billie Jo Spears - Ease The Want in Me
TTITLE2=Johnny Cash - Cold Cold Heart
TTITLE3=Faron Young - There Goes my Everything
TTITLE4=Anne Murray - The Last Thing on my Mind
TTITLE5=Porter Wagoner - Enough to Make a Grown Man Cry
TTITLE6=Conway Twitty - Have I Been Away Too Long
TTITLE7=Johnny Cash - Hey Good Looking
TTITLE8=Anne Murray - All The Time
TTITLE9=Conway Twitty - You Made me What I am Today
TTITLE10=Roy Drusky - I Can't Help It
TTITLE11=Billie Jo Spears - It Could Have Been
TTITLE12=Faron Young - A Moment Isn't Very Long
TTITLE13=George Jones - A Good Year For The Roses
EXTD=
EXTT0=
EXTT1=
EXTT2=
EXTT3=
EXTT4=
EXTT5=
EXTT6=
EXTT7=
EXTT8=
EXTT9=
EXTT10=
EXTT11=
EXTT12=
EXTT13=
PLAYORDER=
